<svg width="200" height="75" viewBox="0 0 200 75" fill="none" xmlns="http://www.w3.org/2000/svg">
<path d="M27.3084 74.9576V46.9678L0 0H15.2885L34.0564 34.3511L52.8244 0H67.7966L40.4881 46.8617V74.9576H27.3084Z" fill="#7D9FF0"/>
<path d="M144.329 74.9576V0H172.375C177.999 0 182.849 0.883519 186.926 2.65055C191.073 4.3469 194.271 7.06813 196.521 10.8142C198.84 14.5604 200 19.4727 200 25.5513C200 31.3472 198.735 36.1889 196.204 40.0763C193.674 43.9638 190.229 46.8971 185.871 48.8762C181.513 50.7846 176.522 51.7388 170.899 51.7388H157.509V74.9576H144.329ZM157.509 39.8643H170.688C175.538 39.8643 179.44 38.698 182.392 36.3656C185.344 34.0331 186.82 30.3576 186.82 25.3393C186.82 20.957 185.59 17.6703 183.13 15.4792C180.67 13.2174 176.874 12.0865 171.743 12.0865H157.509V39.8643Z" fill="#7D9FF0"/>
<path d="M132.082 0H82.3575C80.0785 0 78.2138 1.875 78.2138 4.16666V44C75.769 42.5833 72.9513 41.6667 69.9264 41.6667C60.7688 41.6667 53.3516 49.125 53.3516 58.3333C53.3516 67.5417 60.7688 75 69.9264 75C79.084 75 86.5012 67.5417 86.5012 58.3333V8.33334H127.938V44C125.494 42.5833 122.676 41.6667 119.651 41.6667C110.493 41.6667 103.076 49.125 103.076 58.3333C103.076 67.5417 110.493 75 119.651 75C128.808 75 136.226 67.5417 136.226 58.3333V4.16666C136.226 1.875 134.361 0 132.082 0Z" fill="#7D9FF0"/>
</svg>
